<svg version="1.1" viewBox="0.0 0.0 651.7244094488188 598.5223097112861" fill="none" stroke="none" stroke-linecap="square" stroke-miterlimit="10" xmlns:xlink="http://www.w3.org/1999/xlink" xmlns="http://www.w3.org/2000/svg"><clipPath id="p.0"><path d="m0 0l651.7244 0l0 598.52234l-651.7244 0l0 -598.52234z" clip-rule="nonzero"/></clipPath><g clip-path="url(#p.0)"><path fill="#000000" fill-opacity="0.0" d="m0 0l651.7244 0l0 598.52234l-651.7244 0z" fill-rule="evenodd"/><path fill="#b09439" d="m177.05846 407.0579l294.39368 0l0 97.07086l-294.39368 0z" fill-rule="evenodd"/><path stroke="#b09439" stroke-width="1.0" stroke-miterlimit="8.0" stroke-linecap="butt" d="m177.05846 407.0579l294.39368 0l0 97.07086l-294.39368 0z" fill-rule="evenodd"/><path fill="#ffffff" d="m244.97733 245.27881l32.346466 0l0 32.346466l-32.346466 0z" fill-rule="evenodd"/><path stroke="#ffffff" stroke-width="1.0" stroke-miterlimit="8.0" stroke-linecap="butt" d="m244.97733 245.27881l32.346466 0l0 32.346466l-32.346466 0z" fill-rule="evenodd"/><path fill="#e5aa7a" d="m277.33286 180.56796l97.07086 0l0 64.724396l-97.07086 0z" fill-rule="evenodd"/><path stroke="#e5aa7a" stroke-width="1.0" stroke-miterlimit="8.0" stroke-linecap="butt" d="m277.33286 180.56796l97.07086 0l0 64.724396l-97.07086 0z" fill-rule="evenodd"/><path fill="#e5aa7a" d="m244.97733 180.56796l32.346466 0l0 32.34645l-32.346466 0z" fill-rule="evenodd"/><path stroke="#e5aa7a" stroke-width="1.0" stroke-miterlimit="8.0" stroke-linecap="butt" d="m244.97733 180.56796l32.346466 0l0 32.34645l-32.346466 0z" fill-rule="evenodd"/><path fill="#e5aa7a" d="m212.62181 180.56796l32.34645 0l0 32.34645l-32.34645 0z" fill-rule="evenodd"/><path stroke="#e5aa7a" stroke-width="1.0" stroke-miterlimit="8.0" stroke-linecap="butt" d="m212.62181 180.56796l32.34645 0l0 32.34645l-32.34645 0z" fill-rule="evenodd"/><path fill="#e5aa7a" d="m180.26628 180.56796l32.346466 0l0 32.34645l-32.346466 0z" fill-rule="evenodd"/><path stroke="#e5aa7a" stroke-width="1.0" stroke-miterlimit="8.0" stroke-linecap="butt" d="m180.26628 180.56796l32.346466 0l0 32.34645l-32.346466 0z" fill-rule="evenodd"/><path fill="#e5aa7a" d="m244.97733 148.21252l32.346466 0l0 32.346466l-32.346466 0z" fill-rule="evenodd"/><path stroke="#e5aa7a" stroke-width="1.0" stroke-miterlimit="8.0" stroke-linecap="butt" d="m244.97733 148.21252l32.346466 0l0 32.346466l-32.346466 0z" fill-rule="evenodd"/><path fill="#e5aa7a" d="m309.6884 148.21252l129.41733 0l0 32.346466l-129.41733 0z" fill-rule="evenodd"/><path stroke="#e5aa7a" stroke-width="1.0" stroke-miterlimit="8.0" stroke-linecap="butt" d="m309.6884 148.21252l129.41733 0l0 32.346466l-129.41733 0z" fill-rule="evenodd"/><path fill="#e5aa7a" d="m439.11047 180.56796l32.346466 0l0 32.34645l-32.346466 0z" fill-rule="evenodd"/><path stroke="#e5aa7a" stroke-width="1.0" stroke-miterlimit="8.0" stroke-linecap="butt" d="m439.11047 180.56796l32.346466 0l0 32.34645l-32.346466 0z" fill-rule="evenodd"/><path fill="#e5aa7a" d="m406.75494 180.56796l32.346466 0l0 32.34645l-32.346466 0z" fill-rule="evenodd"/><path stroke="#e5aa7a" stroke-width="1.0" stroke-miterlimit="8.0" stroke-linecap="butt" d="m406.75494 180.56796l32.346466 0l0 32.34645l-32.346466 0z" fill-rule="evenodd"/><path fill="#ffffff" d="m374.3994 245.27881l32.346466 0l0 32.346466l-32.346466 0z" fill-rule="evenodd"/><path stroke="#ffffff" stroke-width="1.0" stroke-miterlimit="8.0" stroke-linecap="butt" d="m374.3994 245.27881l32.346466 0l0 32.346466l-32.346466 0z" fill-rule="evenodd"/><path fill="#e5aa7a" d="m277.33286 277.63422l97.07086 0l0 64.72443l-97.07086 0z" fill-rule="evenodd"/><path stroke="#e5aa7a" stroke-width="1.0" stroke-miterlimit="8.0" stroke-linecap="butt" d="m277.33286 277.63422l97.07086 0l0 64.72443l-97.07086 0z" fill-rule="evenodd"/><path fill="#e5aa7a" d="m212.62181 212.92339l32.34645 0l0 32.34645l-32.34645 0z" fill-rule="evenodd"/><path stroke="#e5aa7a" stroke-width="1.0" stroke-miterlimit="8.0" stroke-linecap="butt" d="m212.62181 212.92339l32.34645 0l0 32.34645l-32.34645 0z" fill-rule="evenodd"/><path fill="#e5aa7a" d="m212.62181 148.21252l32.34645 0l0 32.346466l-32.34645 0z" fill-rule="evenodd"/><path stroke="#e5aa7a" stroke-width="1.0" stroke-miterlimit="8.0" stroke-linecap="butt" d="m212.62181 148.21252l32.34645 0l0 32.346466l-32.34645 0z" fill-rule="evenodd"/><path fill="#e5aa7a" d="m406.75494 212.92339l32.346466 0l0 32.34645l-32.346466 0z" fill-rule="evenodd"/><path stroke="#e5aa7a" stroke-width="1.0" stroke-miterlimit="8.0" stroke-linecap="butt" d="m406.75494 212.92339l32.346466 0l0 32.34645l-32.346466 0z" fill-rule="evenodd"/><path fill="#e5aa7a" d="m374.3994 180.56796l32.346466 0l0 32.34645l-32.346466 0z" fill-rule="evenodd"/><path stroke="#e5aa7a" stroke-width="1.0" stroke-miterlimit="8.0" stroke-linecap="butt" d="m374.3994 180.56796l32.346466 0l0 32.34645l-32.346466 0z" fill-rule="evenodd"/><path fill="#e5aa7a" d="m439.11047 245.27881l32.346466 0l0 32.346466l-32.346466 0z" fill-rule="evenodd"/><path stroke="#e5aa7a" stroke-width="1.0" stroke-miterlimit="8.0" stroke-linecap="butt" d="m439.11047 245.27881l32.346466 0l0 32.346466l-32.346466 0z" fill-rule="evenodd"/><path fill="#e5aa7a" d="m471.466 212.92339l32.346466 0l0 32.34645l-32.346466 0z" fill-rule="evenodd"/><path stroke="#e5aa7a" stroke-width="1.0" stroke-miterlimit="8.0" stroke-linecap="butt" d="m471.466 212.92339l32.346466 0l0 32.34645l-32.346466 0z" fill-rule="evenodd"/><path fill="#e5aa7a" d="m471.466 245.27881l32.346466 0l0 32.346466l-32.346466 0z" fill-rule="evenodd"/><path stroke="#e5aa7a" stroke-width="1.0" stroke-miterlimit="8.0" stroke-linecap="butt" d="m471.466 245.27881l32.346466 0l0 32.346466l-32.346466 0z" fill-rule="evenodd"/><path fill="#e5aa7a" d="m406.75494 277.63422l32.346466 0l0 32.346466l-32.346466 0z" fill-rule="evenodd"/><path stroke="#e5aa7a" stroke-width="1.0" stroke-miterlimit="8.0" stroke-linecap="butt" d="m406.75494 277.63422l32.346466 0l0 32.346466l-32.346466 0z" fill-rule="evenodd"/><path fill="#e5aa7a" d="m439.11047 277.63422l32.346466 0l0 32.346466l-32.346466 0z" fill-rule="evenodd"/><path stroke="#e5aa7a" stroke-width="1.0" stroke-miterlimit="8.0" stroke-linecap="butt" d="m439.11047 277.63422l32.346466 0l0 32.346466l-32.346466 0z" fill-rule="evenodd"/><path fill="#e5aa7a" d="m374.3994 309.98965l32.346466 0l0 32.346466l-32.346466 0z" fill-rule="evenodd"/><path stroke="#e5aa7a" stroke-width="1.0" stroke-miterlimit="8.0" stroke-linecap="butt" d="m374.3994 309.98965l32.346466 0l0 32.346466l-32.346466 0z" fill-rule="evenodd"/><path fill="#e5aa7a" d="m406.75494 309.98965l32.346466 0l0 32.346466l-32.346466 0z" fill-rule="evenodd"/><path stroke="#e5aa7a" stroke-width="1.0" stroke-miterlimit="8.0" stroke-linecap="butt" d="m406.75494 309.98965l32.346466 0l0 32.346466l-32.346466 0z" fill-rule="evenodd"/><path fill="#e5aa7a" d="m406.75494 342.34506l32.346466 0l0 32.346466l-32.346466 0z" fill-rule="evenodd"/><path stroke="#e5aa7a" stroke-width="1.0" stroke-miterlimit="8.0" stroke-linecap="butt" d="m406.75494 342.34506l32.346466 0l0 32.346466l-32.346466 0z" fill-rule="evenodd"/><path fill="#e5aa7a" d="m406.75494 374.7005l32.346466 0l0 32.346466l-32.346466 0z" fill-rule="evenodd"/><path stroke="#e5aa7a" stroke-width="1.0" stroke-miterlimit="8.0" stroke-linecap="butt" d="m406.75494 374.7005l32.346466 0l0 32.346466l-32.346466 0z" fill-rule="evenodd"/><path fill="#e5aa7a" d="m244.97733 309.98965l32.346466 0l0 32.346466l-32.346466 0z" fill-rule="evenodd"/><path stroke="#e5aa7a" stroke-width="1.0" stroke-miterlimit="8.0" stroke-linecap="butt" d="m244.97733 309.98965l32.346466 0l0 32.346466l-32.346466 0z" fill-rule="evenodd"/><path fill="#e5aa7a" d="m212.62181 277.63422l32.34645 0l0 32.346466l-32.34645 0z" fill-rule="evenodd"/><path stroke="#e5aa7a" stroke-width="1.0" stroke-miterlimit="8.0" stroke-linecap="butt" d="m212.62181 277.63422l32.34645 0l0 32.346466l-32.34645 0z" fill-rule="evenodd"/><path fill="#e5aa7a" d="m212.62181 309.98965l32.34645 0l0 32.346466l-32.34645 0z" fill-rule="evenodd"/><path stroke="#e5aa7a" stroke-width="1.0" stroke-miterlimit="8.0" stroke-linecap="butt" d="m212.62181 309.98965l32.34645 0l0 32.346466l-32.34645 0z" fill-rule="evenodd"/><path fill="#e5aa7a" d="m180.26628 245.27881l32.346466 0l0 32.346466l-32.346466 0z" fill-rule="evenodd"/><path stroke="#e5aa7a" stroke-width="1.0" stroke-miterlimit="8.0" stroke-linecap="butt" d="m180.26628 245.27881l32.346466 0l0 32.346466l-32.346466 0z" fill-rule="evenodd"/><path fill="#e5aa7a" d="m180.26628 277.63422l32.346466 0l0 32.346466l-32.346466 0z" fill-rule="evenodd"/><path stroke="#e5aa7a" stroke-width="1.0" stroke-miterlimit="8.0" stroke-linecap="butt" d="m180.26628 277.63422l32.346466 0l0 32.346466l-32.346466 0z" fill-rule="evenodd"/><path fill="#e5aa7a" d="m147.91077 212.92339l32.34645 0l0 32.34645l-32.34645 0z" fill-rule="evenodd"/><path stroke="#e5aa7a" stroke-width="1.0" stroke-miterlimit="8.0" stroke-linecap="butt" d="m147.91077 212.92339l32.34645 0l0 32.34645l-32.34645 0z" fill-rule="evenodd"/><path fill="#e5aa7a" d="m147.91077 245.27881l32.34645 0l0 32.346466l-32.34645 0z" fill-rule="evenodd"/><path stroke="#e5aa7a" stroke-width="1.0" stroke-miterlimit="8.0" stroke-linecap="butt" d="m147.91077 245.27881l32.34645 0l0 32.346466l-32.34645 0z" fill-rule="evenodd"/><path fill="#e5aa7a" d="m212.62181 342.34506l32.34645 0l0 32.346466l-32.34645 0z" fill-rule="evenodd"/><path stroke="#e5aa7a" stroke-width="1.0" stroke-miterlimit="8.0" stroke-linecap="butt" d="m212.62181 342.34506l32.34645 0l0 32.346466l-32.34645 0z" fill-rule="evenodd"/><path fill="#e5aa7a" d="m212.62181 374.7005l32.34645 0l0 32.346466l-32.34645 0z" fill-rule="evenodd"/><path stroke="#e5aa7a" stroke-width="1.0" stroke-miterlimit="8.0" stroke-linecap="butt" d="m212.62181 374.7005l32.34645 0l0 32.346466l-32.34645 0z" fill-rule="evenodd"/><path fill="#c46969" d="m277.33286 374.7005l97.07086 0l0 32.346466l-97.07086 0z" fill-rule="evenodd"/><path stroke="#ffffff" stroke-width="1.0" stroke-miterlimit="8.0" stroke-linecap="butt" d="m277.33286 374.7005l97.07086 0l0 32.346466l-97.07086 0z" fill-rule="evenodd"/><path fill="#e5aa7a" d="m244.97733 342.34506l32.346466 0l0 32.346466l-32.346466 0z" fill-rule="evenodd"/><path stroke="#e5aa7a" stroke-width="1.0" stroke-miterlimit="8.0" stroke-linecap="butt" d="m244.97733 342.34506l32.346466 0l0 32.346466l-32.346466 0z" fill-rule="evenodd"/><path fill="#e5aa7a" d="m244.97733 374.7005l32.346466 0l0 32.346466l-32.346466 0z" fill-rule="evenodd"/><path stroke="#e5aa7a" stroke-width="1.0" stroke-miterlimit="8.0" stroke-linecap="butt" d="m244.97733 374.7005l32.346466 0l0 32.346466l-32.346466 0z" fill-rule="evenodd"/><path fill="#e5aa7a" d="m244.97733 407.05594l32.346466 0l0 32.346436l-32.346466 0z" fill-rule="evenodd"/><path stroke="#e5aa7a" stroke-width="1.0" stroke-miterlimit="8.0" stroke-linecap="butt" d="m244.97733 407.05594l32.346466 0l0 32.346436l-32.346466 0z" fill-rule="evenodd"/><path fill="#e5aa7a" d="m212.62181 407.05594l32.34645 0l0 32.346436l-32.34645 0z" fill-rule="evenodd"/><path stroke="#e5aa7a" stroke-width="1.0" stroke-miterlimit="8.0" stroke-linecap="butt" d="m212.62181 407.05594l32.34645 0l0 32.346436l-32.34645 0z" fill-rule="evenodd"/><path fill="#e5aa7a" d="m277.33286 439.41135l32.346466 0l0 32.346466l-32.346466 0z" fill-rule="evenodd"/><path stroke="#e5aa7a" stroke-width="1.0" stroke-miterlimit="8.0" stroke-linecap="butt" d="m277.33286 439.41135l32.346466 0l0 32.346466l-32.346466 0z" fill-rule="evenodd"/><path fill="#e5aa7a" d="m309.6884 439.41135l32.346466 0l0 32.346466l-32.346466 0z" fill-rule="evenodd"/><path stroke="#e5aa7a" stroke-width="1.0" stroke-miterlimit="8.0" stroke-linecap="butt" d="m309.6884 439.41135l32.346466 0l0 32.346466l-32.346466 0z" fill-rule="evenodd"/><path fill="#e5aa7a" d="m342.0439 439.41135l32.346436 0l0 32.346466l-32.346436 0z" fill-rule="evenodd"/><path stroke="#e5aa7a" stroke-width="1.0" stroke-miterlimit="8.0" stroke-linecap="butt" d="m342.0439 439.41135l32.346436 0l0 32.346466l-32.346436 0z" fill-rule="evenodd"/><path fill="#e5aa7a" d="m374.3994 439.41135l32.346466 0l0 32.346466l-32.346466 0z" fill-rule="evenodd"/><path stroke="#e5aa7a" stroke-width="1.0" stroke-miterlimit="8.0" stroke-linecap="butt" d="m374.3994 439.41135l32.346466 0l0 32.346466l-32.346466 0z" fill-rule="evenodd"/><path fill="#e5aa7a" d="m374.3994 407.05594l32.346466 0l0 32.346436l-32.346466 0z" fill-rule="evenodd"/><path stroke="#e5aa7a" stroke-width="1.0" stroke-miterlimit="8.0" stroke-linecap="butt" d="m374.3994 407.05594l32.346466 0l0 32.346436l-32.346466 0z" fill-rule="evenodd"/><path fill="#e5aa7a" d="m374.3994 374.7005l32.346466 0l0 32.346466l-32.346466 0z" fill-rule="evenodd"/><path stroke="#e5aa7a" stroke-width="1.0" stroke-miterlimit="8.0" stroke-linecap="butt" d="m374.3994 374.7005l32.346466 0l0 32.346466l-32.346466 0z" fill-rule="evenodd"/><path fill="#e5aa7a" d="m374.3994 342.34506l32.346466 0l0 32.346466l-32.346466 0z" fill-rule="evenodd"/><path stroke="#e5aa7a" stroke-width="1.0" stroke-miterlimit="8.0" stroke-linecap="butt" d="m374.3994 342.34506l32.346466 0l0 32.346466l-32.346466 0z" fill-rule="evenodd"/><path fill="#e5aa7a" d="m406.75494 407.05594l32.346466 0l0 32.346436l-32.346466 0z" fill-rule="evenodd"/><path stroke="#e5aa7a" stroke-width="1.0" stroke-miterlimit="8.0" stroke-linecap="butt" d="m406.75494 407.05594l32.346466 0l0 32.346436l-32.346466 0z" fill-rule="evenodd"/><path fill="#e5aa7a" d="m277.33286 407.05594l97.07086 0l0 32.346436l-97.07086 0z" fill-rule="evenodd"/><path stroke="#e5aa7a" stroke-width="1.0" stroke-miterlimit="8.0" stroke-linecap="butt" d="m277.33286 407.05594l97.07086 0l0 32.346436l-97.07086 0z" fill-rule="evenodd"/><path fill="#e5aa7a" d="m277.33286 342.34506l97.07086 0l0 32.346466l-97.07086 0z" fill-rule="evenodd"/><path stroke="#e5aa7a" stroke-width="1.0" stroke-miterlimit="8.0" stroke-linecap="butt" d="m277.33286 342.34506l97.07086 0l0 32.346466l-97.07086 0z" fill-rule="evenodd"/><path fill="#e5aa7a" d="m244.97733 439.41135l32.346466 0l0 32.346466l-32.346466 0z" fill-rule="evenodd"/><path stroke="#e5aa7a" stroke-width="1.0" stroke-miterlimit="8.0" stroke-linecap="butt" d="m244.97733 439.41135l32.346466 0l0 32.346466l-32.346466 0z" fill-rule="evenodd"/><path fill="#e5aa7a" d="m180.26628 374.7005l32.346466 0l0 32.346466l-32.346466 0z" fill-rule="evenodd"/><path stroke="#e5aa7a" stroke-width="1.0" stroke-miterlimit="8.0" stroke-linecap="butt" d="m180.26628 374.7005l32.346466 0l0 32.346466l-32.346466 0z" fill-rule="evenodd"/><path fill="#e5aa7a" d="m180.26628 342.34506l32.346466 0l0 32.346466l-32.346466 0z" fill-rule="evenodd"/><path stroke="#e5aa7a" stroke-width="1.0" stroke-miterlimit="8.0" stroke-linecap="butt" d="m180.26628 342.34506l32.346466 0l0 32.346466l-32.346466 0z" fill-rule="evenodd"/><path fill="#e5aa7a" d="m180.26628 309.98965l32.346466 0l0 32.346466l-32.346466 0z" fill-rule="evenodd"/><path stroke="#e5aa7a" stroke-width="1.0" stroke-miterlimit="8.0" stroke-linecap="butt" d="m180.26628 309.98965l32.346466 0l0 32.346466l-32.346466 0z" fill-rule="evenodd"/><path fill="#e5aa7a" d="m439.11047 374.7005l32.346466 0l0 32.346466l-32.346466 0z" fill-rule="evenodd"/><path stroke="#e5aa7a" stroke-width="1.0" stroke-miterlimit="8.0" stroke-linecap="butt" d="m439.11047 374.7005l32.346466 0l0 32.346466l-32.346466 0z" fill-rule="evenodd"/><path fill="#e5aa7a" d="m439.11047 342.34506l32.346466 0l0 32.346466l-32.346466 0z" fill-rule="evenodd"/><path stroke="#e5aa7a" stroke-width="1.0" stroke-miterlimit="8.0" stroke-linecap="butt" d="m439.11047 342.34506l32.346466 0l0 32.346466l-32.346466 0z" fill-rule="evenodd"/><path fill="#e5aa7a" d="m439.11047 309.98965l32.346466 0l0 32.346466l-32.346466 0z" fill-rule="evenodd"/><path stroke="#e5aa7a" stroke-width="1.0" stroke-miterlimit="8.0" stroke-linecap="butt" d="m439.11047 309.98965l32.346466 0l0 32.346466l-32.346466 0z" fill-rule="evenodd"/><path fill="#e5aa7a" d="m277.33286 148.21252l32.346466 0l0 32.346466l-32.346466 0z" fill-rule="evenodd"/><path stroke="#e5aa7a" stroke-width="1.0" stroke-miterlimit="8.0" stroke-linecap="butt" d="m277.33286 148.21252l32.346466 0l0 32.346466l-32.346466 0z" fill-rule="evenodd"/><path fill="#8e6a26" d="m277.33286 245.27881l32.346466 0l0 32.346466l-32.346466 0z" fill-rule="evenodd"/><path stroke="#8e6a26" stroke-width="1.0" stroke-miterlimit="8.0" stroke-linecap="butt" d="m277.33286 245.27881l32.346466 0l0 32.346466l-32.346466 0z" fill-rule="evenodd"/><path fill="#8e6a26" d="m309.6884 245.27881l32.346466 0l0 32.346466l-32.346466 0z" fill-rule="evenodd"/><path stroke="#8e6a26" stroke-width="1.0" stroke-miterlimit="8.0" stroke-linecap="butt" d="m309.6884 245.27881l32.346466 0l0 32.346466l-32.346466 0z" fill-rule="evenodd"/><path fill="#8e6a26" d="m342.0439 245.27881l32.346436 0l0 32.346466l-32.346436 0z" fill-rule="evenodd"/><path stroke="#8e6a26" stroke-width="1.0" stroke-miterlimit="8.0" stroke-linecap="butt" d="m342.0439 245.27881l32.346436 0l0 32.346466l-32.346436 0z" fill-rule="evenodd"/><path fill="#8e6a26" d="m244.97733 277.63422l32.346466 0l0 32.346466l-32.346466 0z" fill-rule="evenodd"/><path stroke="#8e6a26" stroke-width="1.0" stroke-miterlimit="8.0" stroke-linecap="butt" d="m244.97733 277.63422l32.346466 0l0 32.346466l-32.346466 0z" fill-rule="evenodd"/><path fill="#8e6a26" d="m244.97733 212.92339l32.346466 0l0 32.34645l-32.346466 0z" fill-rule="evenodd"/><path stroke="#8e6a26" stroke-width="1.0" stroke-miterlimit="8.0" stroke-linecap="butt" d="m244.97733 212.92339l32.346466 0l0 32.34645l-32.346466 0z" fill-rule="evenodd"/><path fill="#8e6a26" d="m212.62181 245.27881l32.34645 0l0 32.346466l-32.34645 0z" fill-rule="evenodd"/><path stroke="#8e6a26" stroke-width="1.0" stroke-miterlimit="8.0" stroke-linecap="butt" d="m212.62181 245.27881l32.34645 0l0 32.346466l-32.34645 0z" fill-rule="evenodd"/><path fill="#8e6a26" d="m180.26628 212.92339l32.346466 0l0 32.34645l-32.346466 0z" fill-rule="evenodd"/><path stroke="#8e6a26" stroke-width="1.0" stroke-miterlimit="8.0" stroke-linecap="butt" d="m180.26628 212.92339l32.346466 0l0 32.34645l-32.346466 0z" fill-rule="evenodd"/><path fill="#8e6a26" d="m147.91077 180.56796l32.34645 0l0 32.34645l-32.34645 0z" fill-rule="evenodd"/><path stroke="#8e6a26" stroke-width="1.0" stroke-miterlimit="8.0" stroke-linecap="butt" d="m147.91077 180.56796l32.34645 0l0 32.34645l-32.34645 0z" fill-rule="evenodd"/><path fill="#8e6a26" d="m406.75494 245.27881l32.346466 0l0 32.346466l-32.346466 0z" fill-rule="evenodd"/><path stroke="#8e6a26" stroke-width="1.0" stroke-miterlimit="8.0" stroke-linecap="butt" d="m406.75494 245.27881l32.346466 0l0 32.346466l-32.346466 0z" fill-rule="evenodd"/><path fill="#8e6a26" d="m374.3994 277.63422l32.346466 0l0 32.346466l-32.346466 0z" fill-rule="evenodd"/><path stroke="#8e6a26" stroke-width="1.0" stroke-miterlimit="8.0" stroke-linecap="butt" d="m374.3994 277.63422l32.346466 0l0 32.346466l-32.346466 0z" fill-rule="evenodd"/><path fill="#8e6a26" d="m374.3994 212.92339l32.346466 0l0 32.34645l-32.346466 0z" fill-rule="evenodd"/><path stroke="#8e6a26" stroke-width="1.0" stroke-miterlimit="8.0" stroke-linecap="butt" d="m374.3994 212.92339l32.346466 0l0 32.34645l-32.346466 0z" fill-rule="evenodd"/><path fill="#8e6a26" d="m439.11047 212.92339l32.346466 0l0 32.34645l-32.346466 0z" fill-rule="evenodd"/><path stroke="#8e6a26" stroke-width="1.0" stroke-miterlimit="8.0" stroke-linecap="butt" d="m439.11047 212.92339l32.346466 0l0 32.34645l-32.346466 0z" fill-rule="evenodd"/><path fill="#8e6a26" d="m471.466 180.56796l32.346466 0l0 32.34645l-32.346466 0z" fill-rule="evenodd"/><path stroke="#8e6a26" stroke-width="1.0" stroke-miterlimit="8.0" stroke-linecap="butt" d="m471.466 180.56796l32.346466 0l0 32.34645l-32.346466 0z" fill-rule="evenodd"/><path fill="#8e6a26" d="m212.62169 277.6329l32.34645 0l0 32.346466l-32.34645 0z" fill-rule="evenodd"/><path stroke="#8e6a26" stroke-width="1.0" stroke-miterlimit="8.0" stroke-linecap="butt" d="m212.62169 277.6329l32.34645 0l0 32.346466l-32.34645 0z" fill-rule="evenodd"/><path fill="#8e6a26" d="m277.33298 277.6447l32.346466 0l0 32.346466l-32.346466 0z" fill-rule="evenodd"/><path stroke="#8e6a26" stroke-width="1.0" stroke-miterlimit="8.0" stroke-linecap="butt" d="m277.33298 277.6447l32.346466 0l0 32.346466l-32.346466 0z" fill-rule="evenodd"/><path fill="#8e6a26" d="m277.3343 212.92294l32.346466 0l0 32.34645l-32.346466 0z" fill-rule="evenodd"/><path stroke="#8e6a26" stroke-width="1.0" stroke-miterlimit="8.0" stroke-linecap="butt" d="m277.3343 212.92294l32.346466 0l0 32.34645l-32.346466 0z" fill-rule="evenodd"/><path fill="#8e6a26" d="m212.62169 212.92294l32.34645 0l0 32.34645l-32.34645 0z" fill-rule="evenodd"/><path stroke="#8e6a26" stroke-width="1.0" stroke-miterlimit="8.0" stroke-linecap="butt" d="m212.62169 212.92294l32.34645 0l0 32.34645l-32.34645 0z" fill-rule="evenodd"/><path fill="#8e6a26" d="m342.04556 212.92294l32.346466 0l0 32.34645l-32.346466 0z" fill-rule="evenodd"/><path stroke="#8e6a26" stroke-width="1.0" stroke-miterlimit="8.0" stroke-linecap="butt" d="m342.04556 212.92294l32.346466 0l0 32.34645l-32.346466 0z" fill-rule="evenodd"/><path fill="#8e6a26" d="m342.04294 277.6434l32.346466 0l0 32.346466l-32.346466 0z" fill-rule="evenodd"/><path stroke="#8e6a26" stroke-width="1.0" stroke-miterlimit="8.0" stroke-linecap="butt" d="m342.04294 277.6434l32.346466 0l0 32.346466l-32.346466 0z" fill-rule="evenodd"/><path fill="#8e6a26" d="m406.75687 277.63422l32.346436 0l0 32.346466l-32.346436 0z" fill-rule="evenodd"/><path stroke="#8e6a26" stroke-width="1.0" stroke-miterlimit="8.0" stroke-linecap="butt" d="m406.75687 277.63422l32.346436 0l0 32.346466l-32.346436 0z" fill-rule="evenodd"/><path fill="#b09439" d="m439.11047 148.21252l32.346466 0l0 32.346466l-32.346466 0z" fill-rule="evenodd"/><path stroke="#b09439" stroke-width="1.0" stroke-miterlimit="8.0" stroke-linecap="butt" d="m439.11047 148.21252l32.346466 0l0 32.346466l-32.346466 0z" fill-rule="evenodd"/><path fill="#b09439" d="m439.11047 115.8558l32.346466 0l0 32.34646l-32.346466 0z" fill-rule="evenodd"/><path stroke="#b09439" stroke-width="1.0" stroke-miterlimit="8.0" stroke-linecap="butt" d="m439.11047 115.8558l32.346466 0l0 32.34646l-32.346466 0z" fill-rule="evenodd"/><path fill="#b09439" d="m180.26628 115.85711l258.83466 0l0 32.34646l-258.83466 0z" fill-rule="evenodd"/><path stroke="#b09439" stroke-width="1.0" stroke-miterlimit="8.0" stroke-linecap="butt" d="m180.26628 115.85711l258.83466 0l0 32.34646l-258.83466 0z" fill-rule="evenodd"/><path fill="#b09439" d="m212.62181 83.501686l226.48817 0l0 32.34645l-226.48817 0z" fill-rule="evenodd"/><path stroke="#b09439" stroke-width="1.0" stroke-miterlimit="8.0" stroke-linecap="butt" d="m212.62181 83.501686l226.48817 0l0 32.34645l-226.48817 0z" fill-rule="evenodd"/><path fill="#b09439" d="m180.26628 148.21252l32.346466 0l0 32.346466l-32.346466 0z" fill-rule="evenodd"/><path stroke="#b09439" stroke-width="1.0" stroke-miterlimit="8.0" stroke-linecap="butt" d="m180.26628 148.21252l32.346466 0l0 32.346466l-32.346466 0z" fill-rule="evenodd"/><path fill="#b09439" d="m147.91196 212.92381l32.34645 0l0 32.346466l-32.34645 0z" fill-rule="evenodd"/><path stroke="#b09439" stroke-width="1.0" stroke-miterlimit="8.0" stroke-linecap="butt" d="m147.91196 212.92381l32.34645 0l0 32.346466l-32.34645 0z" fill-rule="evenodd"/><path fill="#b09439" d="m147.91196 245.27815l32.34645 0l0 32.34645l-32.34645 0z" fill-rule="evenodd"/><path stroke="#b09439" stroke-width="1.0" stroke-miterlimit="8.0" stroke-linecap="butt" d="m147.91196 245.27815l32.34645 0l0 32.34645l-32.34645 0z" fill-rule="evenodd"/><path fill="#b09439" d="m147.91196 277.63248l32.34645 0l0 32.346466l-32.34645 0z" fill-rule="evenodd"/><path stroke="#b09439" stroke-width="1.0" stroke-miterlimit="8.0" stroke-linecap="butt" d="m147.91196 277.63248l32.34645 0l0 32.346466l-32.34645 0z" fill-rule="evenodd"/><path fill="#b09439" d="m147.91208 309.98944l32.34645 0l0 194.14172l-32.34645 0z" fill-rule="evenodd"/><path stroke="#b09439" stroke-width="1.0" stroke-miterlimit="8.0" stroke-linecap="butt" d="m147.91208 309.98944l32.34645 0l0 194.14172l-32.34645 0z" fill-rule="evenodd"/><path fill="#b09439" d="m471.46588 212.92389l32.346466 0l0 291.2126l-32.346466 0z" fill-rule="evenodd"/><path stroke="#b09439" stroke-width="1.0" stroke-miterlimit="8.0" stroke-linecap="butt" d="m471.46588 212.92389l32.346466 0l0 291.2126l-32.346466 0z" fill-rule="evenodd"/><path fill="#b09439" d="m503.82022 277.62466l32.346466 0l0 226.51968l-32.346466 0z" fill-rule="evenodd"/><path stroke="#b09439" stroke-width="1.0" stroke-miterlimit="8.0" stroke-linecap="butt" d="m503.82022 277.62466l32.346466 0l0 226.51968l-32.346466 0z" fill-rule="evenodd"/><path fill="#b09439" d="m115.55774 277.62466l32.346466 0l0 226.51968l-32.346466 0z" fill-rule="evenodd"/><path stroke="#b09439" stroke-width="1.0" stroke-miterlimit="8.0" stroke-linecap="butt" d="m115.55774 277.62466l32.346466 0l0 226.51968l-32.346466 0z" fill-rule="evenodd"/><path fill="#b09439" d="m147.91196 148.21515l32.34645 0l0 32.346466l-32.34645 0z" fill-rule="evenodd"/><path stroke="#b09439" stroke-width="1.0" stroke-miterlimit="8.0" stroke-linecap="butt" d="m147.91196 148.21515l32.34645 0l0 32.346466l-32.34645 0z" fill-rule="evenodd"/><path fill="#b09439" d="m471.471 148.2099l32.346466 0l0 32.346466l-32.346466 0z" fill-rule="evenodd"/><path stroke="#b09439" stroke-width="1.0" stroke-miterlimit="8.0" stroke-linecap="butt" d="m471.471 148.2099l32.346466 0l0 32.346466l-32.346466 0z" fill-rule="evenodd"/><path fill="#8e6a26" d="m406.7608 212.92294l32.346436 0l0 32.34645l-32.346436 0z" fill-rule="evenodd"/><path stroke="#8e6a26" stroke-width="1.0" stroke-miterlimit="8.0" stroke-linecap="butt" d="m406.7608 212.92294l32.346436 0l0 32.34645l-32.346436 0z" fill-rule="evenodd"/></g></svg>