<svg version="1.1" viewBox="0.0 0.0 222.27034120734908 178.0524934383202" fill="none" stroke="none" stroke-linecap="square" stroke-miterlimit="10" xmlns:xlink="http://www.w3.org/1999/xlink" xmlns="http://www.w3.org/2000/svg"><clipPath id="p.0"><path d="m0 0l222.27034 0l0 178.05249l-222.27034 0l0 -178.05249z" clip-rule="nonzero"/></clipPath><g clip-path="url(#p.0)"><path fill="#000000" fill-opacity="0.0" d="m0 0l222.27034 0l0 178.05249l-222.27034 0z" fill-rule="evenodd"/><path fill="#ff9900" d="m-0.001312336 44.09449l36.66142 0l0 44.09449l-36.66142 0z" fill-rule="evenodd"/><path stroke="#000000" stroke-width="8.0" stroke-linejoin="round" stroke-linecap="butt" d="m-0.001312336 44.09449l36.66142 0l0 44.09449l-36.66142 0z" fill-rule="evenodd"/><path fill="#ff9900" d="m-0.001312336 88.18898l73.32284 0l0 44.094482l-73.32284 0z" fill-rule="evenodd"/><path stroke="#000000" stroke-width="8.0" stroke-linejoin="round" stroke-linecap="butt" d="m-0.001312336 88.18898l73.32284 0l0 44.094482l-73.32284 0z" fill-rule="evenodd"/><path fill="#ff9900" d="m-0.001312336 132.28346l109.98425 0l0 44.094498l-109.98425 0z" fill-rule="evenodd"/><path stroke="#000000" stroke-width="8.0" stroke-linejoin="round" stroke-linecap="butt" d="m-0.001312336 132.28346l109.98425 0l0 44.094498l-109.98425 0z" fill-rule="evenodd"/><path fill="#ff9900" d="m36.660107 44.09449l109.98425 0l0 44.09449l-109.98425 0z" fill-rule="evenodd"/><path stroke="#000000" stroke-width="8.0" stroke-linejoin="round" stroke-linecap="butt" d="m36.660107 44.09449l109.98425 0l0 44.09449l-109.98425 0z" fill-rule="evenodd"/><path fill="#ff9900" d="m73.321526 88.18898l109.984245 0l0 44.094482l-109.984245 0z" fill-rule="evenodd"/><path stroke="#000000" stroke-width="8.0" stroke-linejoin="round" stroke-linecap="butt" d="m73.321526 88.18898l109.984245 0l0 44.094482l-109.984245 0z" fill-rule="evenodd"/><path fill="#ff9900" d="m109.98294 132.28346l109.98425 0l0 44.094498l-109.98425 0z" fill-rule="evenodd"/><path stroke="#000000" stroke-width="8.0" stroke-linejoin="round" stroke-linecap="butt" d="m109.98294 132.28346l109.98425 0l0 44.094498l-109.98425 0z" fill-rule="evenodd"/><path fill="#ff9900" d="m146.64436 44.09449l73.32283 0l0 44.09449l-73.32283 0z" fill-rule="evenodd"/><path stroke="#000000" stroke-width="8.0" stroke-linejoin="round" stroke-linecap="butt" d="m146.64436 44.09449l73.32283 0l0 44.09449l-73.32283 0z" fill-rule="evenodd"/><path fill="#ff9900" d="m183.30577 88.18898l36.661423 0l0 44.094482l-36.661423 0z" fill-rule="evenodd"/><path stroke="#000000" stroke-width="8.0" stroke-linejoin="round" stroke-linecap="butt" d="m183.30577 88.18898l36.661423 0l0 44.094482l-36.661423 0z" fill-rule="evenodd"/><path fill="#ff9900" d="m-0.001312336 0l109.98425 0l0 44.09449l-109.98425 0z" fill-rule="evenodd"/><path stroke="#000000" stroke-width="8.0" stroke-linejoin="round" stroke-linecap="butt" d="m-0.001312336 0l109.98425 0l0 44.09449l-109.98425 0z" fill-rule="evenodd"/><path fill="#ff9900" d="m109.98294 0l109.98425 0l0 44.09449l-109.98425 0z" fill-rule="evenodd"/><path stroke="#000000" stroke-width="8.0" stroke-linejoin="round" stroke-linecap="butt" d="m109.98294 0l109.98425 0l0 44.09449l-109.98425 0z" fill-rule="evenodd"/></g></svg>