<svg version="1.1" viewBox="0.0 0.0 649.0 649.0" fill="none" stroke="none" stroke-linecap="square" stroke-miterlimit="10" xmlns:xlink="http://www.w3.org/1999/xlink" xmlns="http://www.w3.org/2000/svg"><clipPath id="p.0"><path d="m0 0l649.0 0l0 649.0l-649.0 0l0 -649.0z" clip-rule="nonzero"/></clipPath><g clip-path="url(#p.0)"><path fill="#000000" fill-opacity="0.0" d="m0 0l649.0 0l0 649.0l-649.0 0z" fill-rule="evenodd"/><path fill="#783f04" d="m219.78714 56.98819l209.42572 0l0 0c13.8862 0 27.203674 5.5162735 37.022705 15.335304c9.819031 9.819031 15.335297 23.13649 15.335297 37.022697l0 482.66565c0 0.0014038086 -0.001159668 0.0025634766 -0.0026245117 0.0025634766l-314.1391 -0.0025634766l0 0c-0.001449585 0 -0.0026245117 -0.0012207031 -0.0026245117 -0.0026245117l0.0026245117 -482.66302l0 0c0 -28.916527 23.441467 -52.358 52.358 -52.358z" fill-rule="evenodd"/><path stroke="#000000" stroke-width="12.0" stroke-linejoin="round" stroke-linecap="butt" d="m219.78714 56.98819l209.42572 0l0 0c13.8862 0 27.203674 5.5162735 37.022705 15.335304c9.819031 9.819031 15.335297 23.13649 15.335297 37.022697l0 482.66565c0 0.0014038086 -0.001159668 0.0025634766 -0.0026245117 0.0025634766l-314.1391 -0.0025634766l0 0c-0.001449585 0 -0.0026245117 -0.0012207031 -0.0026245117 -0.0026245117l0.0026245117 -482.66302l0 0c0 -28.916527 23.441467 -52.358 52.358 -52.358z" fill-rule="evenodd"/><path fill="#783f04" d="m222.44489 58.98819l11.149597 0l0 531.0237l-11.149597 0z" fill-rule="evenodd"/><path stroke="#623303" stroke-width="12.0" stroke-linejoin="round" stroke-linecap="butt" d="m222.44489 58.98819l11.149597 0l0 531.0237l-11.149597 0z" fill-rule="evenodd"/><path fill="#783f04" d="m287.8832 56.98819l11.149597 0l0 531.0237l-11.149597 0z" fill-rule="evenodd"/><path stroke="#623303" stroke-width="12.0" stroke-linejoin="round" stroke-linecap="butt" d="m287.8832 56.98819l11.149597 0l0 531.0237l-11.149597 0z" fill-rule="evenodd"/><path fill="#783f04" d="m359.69684 56.98819l11.149628 0l0 531.0237l-11.149628 0z" fill-rule="evenodd"/><path stroke="#623303" stroke-width="12.0" stroke-linejoin="round" stroke-linecap="butt" d="m359.69684 56.98819l11.149628 0l0 531.0237l-11.149628 0z" fill-rule="evenodd"/><path fill="#783f04" d="m420.3609 58.98819l11.149597 0l0 531.0237l-11.149597 0z" fill-rule="evenodd"/><path stroke="#623303" stroke-width="12.0" stroke-linejoin="round" stroke-linecap="butt" d="m420.3609 58.98819l11.149597 0l0 531.0237l-11.149597 0z" fill-rule="evenodd"/><path fill="#ffff00" d="m431.5105 344.43176l0 0c0 -8.149475 6.6064453 -14.75592 14.75592 -14.75592l0 0c3.9134827 0 7.6667175 1.554657 10.4339905 4.32193c2.767273 2.7672424 4.3218994 6.5204773 4.3218994 10.4339905l0 0c0 8.149445 -6.6064453 14.75589 -14.75589 14.75589l0 0c-8.149475 0 -14.75592 -6.6064453 -14.75592 -14.75589z" fill-rule="evenodd"/><path stroke="#bf9000" stroke-width="12.0" stroke-linejoin="round" stroke-linecap="butt" d="m431.5105 344.43176l0 0c0 -8.149475 6.6064453 -14.75592 14.75592 -14.75592l0 0c3.9134827 0 7.6667175 1.554657 10.4339905 4.32193c2.767273 2.7672424 4.3218994 6.5204773 4.3218994 10.4339905l0 0c0 8.149445 -6.6064453 14.75589 -14.75589 14.75589l0 0c-8.149475 0 -14.75592 -6.6064453 -14.75592 -14.75589z" fill-rule="evenodd"/><path fill="#000000" fill-opacity="0.0" d="m219.78714 56.98819l209.42572 0l0 0c13.8862 0 27.203674 5.5162735 37.022705 15.335304c9.819031 9.819031 15.335297 23.13649 15.335297 37.022697l0 482.66565c0 0.0014038086 -0.001159668 0.0025634766 -0.0026245117 0.0025634766l-314.1391 -0.0025634766l0 0c-0.001449585 0 -0.0026245117 -0.0012207031 -0.0026245117 -0.0026245117l0.0026245117 -482.66302l0 0c0 -28.916527 23.441467 -52.358 52.358 -52.358z" fill-rule="evenodd"/><path stroke="#000000" stroke-width="12.0" stroke-linejoin="round" stroke-linecap="butt" d="m219.78714 56.98819l209.42572 0l0 0c13.8862 0 27.203674 5.5162735 37.022705 15.335304c9.819031 9.819031 15.335297 23.13649 15.335297 37.022697l0 482.66565c0 0.0014038086 -0.001159668 0.0025634766 -0.0026245117 0.0025634766l-314.1391 -0.0025634766l0 0c-0.001449585 0 -0.0026245117 -0.0012207031 -0.0026245117 -0.0026245117l0.0026245117 -482.66302l0 0c0 -28.916527 23.441467 -52.358 52.358 -52.358z" fill-rule="evenodd"/></g></svg>