<svg version="1.1" viewBox="0.0 0.0 567.3595800524935 568.1154855643044" fill="none" stroke="none" stroke-linecap="square" stroke-miterlimit="10" xmlns:xlink="http://www.w3.org/1999/xlink" xmlns="http://www.w3.org/2000/svg"><clipPath id="p.0"><path d="m0 0l567.35956 0l0 568.1155l-567.35956 0l0 -568.1155z" clip-rule="nonzero"/></clipPath><g clip-path="url(#p.0)"><path fill="#000000" fill-opacity="0.0" d="m0 0l567.35956 0l0 568.1155l-567.35956 0z" fill-rule="evenodd"/><path fill="#81e54f" d="m0 0l567.37006 0l0 568.126l-567.37006 0z" fill-rule="evenodd"/><path fill="#000000" d="m195.19762 323.93173l27.390625 -2.390625q1.953125 16.46875 9.0625 27.03125q7.109375 10.546875 22.078125 17.0625q14.98439 6.515625 33.70314 6.515625q16.609375 0 29.34375 -4.9375q12.734375 -4.9375 18.9375 -13.546875q6.21875 -8.609375 6.21875 -18.796875q0 -10.328125 -6.0 -18.03125q-5.984375 -7.71875 -19.75 -12.96875q-8.84375 -3.4375 -39.09375 -10.703125q-30.23439 -7.265625 -42.35939 -13.703125q-15.734375 -8.234375 -23.453125 -20.4375q-7.703125 -12.203125 -7.703125 -27.328125q0 -16.609375 9.4375 -31.0625q9.4375 -14.453125 27.546875 -21.9375q18.125015 -7.484375 40.281265 -7.484375q24.40625 0 43.046875 7.859375q18.640625 7.859375 28.671875 23.140625q10.03125 15.265625 10.78125 34.578125l-27.84375 2.09375q-2.25 -20.8125 -15.203125 -31.4375q-12.953125 -10.640625 -38.25 -10.640625q-26.35939 0 -38.42189 9.671875q-12.046875 9.65625 -12.046875 23.28125q0 11.828125 8.546875 19.453125q8.375 7.640625 43.781265 15.65625q35.421875 8.015625 48.59375 14.0q19.171875 8.828125 28.296875 22.390625q9.140625 13.546875 9.140625 31.21875q0 17.515625 -10.03125 33.015625q-10.03125 15.5 -28.828125 24.109375q-18.78125 8.609375 -42.296875 8.609375q-29.796875 0 -49.937515 -8.6875q-20.140625 -8.6875 -31.59375 -26.125q-11.453125 -17.453125 -12.046875 -39.46875z" fill-rule="nonzero"/></g></svg>