<svg version="1.1" viewBox="0.0 0.0 570.0 570.0" fill="none" stroke="none" stroke-linecap="square" stroke-miterlimit="10" xmlns:xlink="http://www.w3.org/1999/xlink" xmlns="http://www.w3.org/2000/svg"><clipPath id="p.0"><path d="m0 0l570.0 0l0 570.0l-570.0 0l0 -570.0z" clip-rule="nonzero"/></clipPath><g clip-path="url(#p.0)"><path fill="#000000" fill-opacity="0.0" d="m0 0l570.0 0l0 570.0l-570.0 0z" fill-rule="evenodd"/><path fill="#ffffff" d="m204.11513 252.64888l32.34645 0l0 32.34645l-32.34645 0z" fill-rule="evenodd"/><path stroke="#ffffff" stroke-width="1.0" stroke-miterlimit="8.0" stroke-linecap="butt" d="m204.11513 252.64888l32.34645 0l0 32.34645l-32.34645 0z" fill-rule="evenodd"/><path fill="#ffffff" d="m333.53723 252.64888l32.346436 0l0 32.34645l-32.346436 0z" fill-rule="evenodd"/><path stroke="#ffffff" stroke-width="1.0" stroke-miterlimit="8.0" stroke-linecap="butt" d="m333.53723 252.64888l32.346436 0l0 32.34645l-32.346436 0z" fill-rule="evenodd"/><path fill="#e5aa7a" d="m236.47066 187.93803l97.07085 0l0 64.72441l-97.07085 0z" fill-rule="evenodd"/><path stroke="#e5aa7a" stroke-width="1.0" stroke-miterlimit="8.0" stroke-linecap="butt" d="m236.47066 187.93803l97.07085 0l0 64.72441l-97.07085 0z" fill-rule="evenodd"/><path fill="#e5aa7a" d="m236.47066 285.0043l97.07085 0l0 64.72443l-97.07085 0z" fill-rule="evenodd"/><path stroke="#e5aa7a" stroke-width="1.0" stroke-miterlimit="8.0" stroke-linecap="butt" d="m236.47066 285.0043l97.07085 0l0 64.72443l-97.07085 0z" fill-rule="evenodd"/><path fill="#e5aa7a" d="m171.7596 220.29346l32.346466 0l0 32.34645l-32.346466 0z" fill-rule="evenodd"/><path stroke="#e5aa7a" stroke-width="1.0" stroke-miterlimit="8.0" stroke-linecap="butt" d="m171.7596 220.29346l32.346466 0l0 32.34645l-32.346466 0z" fill-rule="evenodd"/><path fill="#e5aa7a" d="m204.11513 187.93803l32.34645 0l0 32.34645l-32.34645 0z" fill-rule="evenodd"/><path stroke="#e5aa7a" stroke-width="1.0" stroke-miterlimit="8.0" stroke-linecap="butt" d="m204.11513 187.93803l32.34645 0l0 32.34645l-32.34645 0z" fill-rule="evenodd"/><path fill="#e5aa7a" d="m171.7596 187.93803l32.346466 0l0 32.34645l-32.346466 0z" fill-rule="evenodd"/><path stroke="#e5aa7a" stroke-width="1.0" stroke-miterlimit="8.0" stroke-linecap="butt" d="m171.7596 187.93803l32.346466 0l0 32.34645l-32.346466 0z" fill-rule="evenodd"/><path fill="#e5aa7a" d="m139.40408 187.93803l32.34645 0l0 32.34645l-32.34645 0z" fill-rule="evenodd"/><path stroke="#e5aa7a" stroke-width="1.0" stroke-miterlimit="8.0" stroke-linecap="butt" d="m139.40408 187.93803l32.34645 0l0 32.34645l-32.34645 0z" fill-rule="evenodd"/><path fill="#e5aa7a" d="m171.7596 155.58261l32.346466 0l0 32.34645l-32.346466 0z" fill-rule="evenodd"/><path stroke="#e5aa7a" stroke-width="1.0" stroke-miterlimit="8.0" stroke-linecap="butt" d="m171.7596 155.58261l32.346466 0l0 32.34645l-32.346466 0z" fill-rule="evenodd"/><path fill="#e5aa7a" d="m204.11513 155.58261l32.34645 0l0 32.34645l-32.34645 0z" fill-rule="evenodd"/><path stroke="#e5aa7a" stroke-width="1.0" stroke-miterlimit="8.0" stroke-linecap="butt" d="m204.11513 155.58261l32.34645 0l0 32.34645l-32.34645 0z" fill-rule="evenodd"/><path fill="#e5aa7a" d="m268.82617 155.58261l129.41733 0l0 32.34645l-129.41733 0z" fill-rule="evenodd"/><path stroke="#e5aa7a" stroke-width="1.0" stroke-miterlimit="8.0" stroke-linecap="butt" d="m268.82617 155.58261l129.41733 0l0 32.34645l-129.41733 0z" fill-rule="evenodd"/><path fill="#e5aa7a" d="m398.24826 187.93803l32.346466 0l0 32.34645l-32.346466 0z" fill-rule="evenodd"/><path stroke="#e5aa7a" stroke-width="1.0" stroke-miterlimit="8.0" stroke-linecap="butt" d="m398.24826 187.93803l32.346466 0l0 32.34645l-32.346466 0z" fill-rule="evenodd"/><path fill="#e5aa7a" d="m365.89276 220.29346l32.346436 0l0 32.34645l-32.346436 0z" fill-rule="evenodd"/><path stroke="#e5aa7a" stroke-width="1.0" stroke-miterlimit="8.0" stroke-linecap="butt" d="m365.89276 220.29346l32.346436 0l0 32.34645l-32.346436 0z" fill-rule="evenodd"/><path fill="#e5aa7a" d="m365.89276 187.93803l32.346436 0l0 32.34645l-32.346436 0z" fill-rule="evenodd"/><path stroke="#e5aa7a" stroke-width="1.0" stroke-miterlimit="8.0" stroke-linecap="butt" d="m365.89276 187.93803l32.346436 0l0 32.34645l-32.346436 0z" fill-rule="evenodd"/><path fill="#e5aa7a" d="m333.53723 187.93803l32.346436 0l0 32.34645l-32.346436 0z" fill-rule="evenodd"/><path stroke="#e5aa7a" stroke-width="1.0" stroke-miterlimit="8.0" stroke-linecap="butt" d="m333.53723 187.93803l32.346436 0l0 32.34645l-32.346436 0z" fill-rule="evenodd"/><path fill="#e5aa7a" d="m398.24826 252.64888l32.346466 0l0 32.34645l-32.346466 0z" fill-rule="evenodd"/><path stroke="#e5aa7a" stroke-width="1.0" stroke-miterlimit="8.0" stroke-linecap="butt" d="m398.24826 252.64888l32.346466 0l0 32.34645l-32.346466 0z" fill-rule="evenodd"/><path fill="#e5aa7a" d="m430.6038 220.29346l32.346466 0l0 32.34645l-32.346466 0z" fill-rule="evenodd"/><path stroke="#e5aa7a" stroke-width="1.0" stroke-miterlimit="8.0" stroke-linecap="butt" d="m430.6038 220.29346l32.346466 0l0 32.34645l-32.346466 0z" fill-rule="evenodd"/><path fill="#e5aa7a" d="m430.6038 252.64888l32.346466 0l0 32.34645l-32.346466 0z" fill-rule="evenodd"/><path stroke="#e5aa7a" stroke-width="1.0" stroke-miterlimit="8.0" stroke-linecap="butt" d="m430.6038 252.64888l32.346466 0l0 32.34645l-32.346466 0z" fill-rule="evenodd"/><path fill="#e5aa7a" d="m365.89276 285.0043l32.346436 0l0 32.346466l-32.346436 0z" fill-rule="evenodd"/><path stroke="#e5aa7a" stroke-width="1.0" stroke-miterlimit="8.0" stroke-linecap="butt" d="m365.89276 285.0043l32.346436 0l0 32.346466l-32.346436 0z" fill-rule="evenodd"/><path fill="#e5aa7a" d="m398.24826 285.0043l32.346466 0l0 32.346466l-32.346466 0z" fill-rule="evenodd"/><path stroke="#e5aa7a" stroke-width="1.0" stroke-miterlimit="8.0" stroke-linecap="butt" d="m398.24826 285.0043l32.346466 0l0 32.346466l-32.346466 0z" fill-rule="evenodd"/><path fill="#e5aa7a" d="m333.53723 317.35974l32.346436 0l0 32.346436l-32.346436 0z" fill-rule="evenodd"/><path stroke="#e5aa7a" stroke-width="1.0" stroke-miterlimit="8.0" stroke-linecap="butt" d="m333.53723 317.35974l32.346436 0l0 32.346436l-32.346436 0z" fill-rule="evenodd"/><path fill="#e5aa7a" d="m365.89276 317.35974l32.346436 0l0 32.346436l-32.346436 0z" fill-rule="evenodd"/><path stroke="#e5aa7a" stroke-width="1.0" stroke-miterlimit="8.0" stroke-linecap="butt" d="m365.89276 317.35974l32.346436 0l0 32.346436l-32.346436 0z" fill-rule="evenodd"/><path fill="#e5aa7a" d="m365.89276 349.71515l32.346436 0l0 32.346466l-32.346436 0z" fill-rule="evenodd"/><path stroke="#e5aa7a" stroke-width="1.0" stroke-miterlimit="8.0" stroke-linecap="butt" d="m365.89276 349.71515l32.346436 0l0 32.346466l-32.346436 0z" fill-rule="evenodd"/><path fill="#e5aa7a" d="m365.89276 382.0706l32.346436 0l0 32.346436l-32.346436 0z" fill-rule="evenodd"/><path stroke="#e5aa7a" stroke-width="1.0" stroke-miterlimit="8.0" stroke-linecap="butt" d="m365.89276 382.0706l32.346436 0l0 32.346436l-32.346436 0z" fill-rule="evenodd"/><path fill="#e5aa7a" d="m204.11513 317.35974l32.34645 0l0 32.346436l-32.34645 0z" fill-rule="evenodd"/><path stroke="#e5aa7a" stroke-width="1.0" stroke-miterlimit="8.0" stroke-linecap="butt" d="m204.11513 317.35974l32.34645 0l0 32.346436l-32.34645 0z" fill-rule="evenodd"/><path fill="#e5aa7a" d="m171.7596 285.0043l32.346466 0l0 32.346466l-32.346466 0z" fill-rule="evenodd"/><path stroke="#e5aa7a" stroke-width="1.0" stroke-miterlimit="8.0" stroke-linecap="butt" d="m171.7596 285.0043l32.346466 0l0 32.346466l-32.346466 0z" fill-rule="evenodd"/><path fill="#e5aa7a" d="m171.7596 317.35974l32.346466 0l0 32.346436l-32.346466 0z" fill-rule="evenodd"/><path stroke="#e5aa7a" stroke-width="1.0" stroke-miterlimit="8.0" stroke-linecap="butt" d="m171.7596 317.35974l32.346466 0l0 32.346436l-32.346466 0z" fill-rule="evenodd"/><path fill="#e5aa7a" d="m139.40408 252.64888l32.34645 0l0 32.34645l-32.34645 0z" fill-rule="evenodd"/><path stroke="#e5aa7a" stroke-width="1.0" stroke-miterlimit="8.0" stroke-linecap="butt" d="m139.40408 252.64888l32.34645 0l0 32.34645l-32.34645 0z" fill-rule="evenodd"/><path fill="#e5aa7a" d="m139.40408 285.0043l32.34645 0l0 32.346466l-32.34645 0z" fill-rule="evenodd"/><path stroke="#e5aa7a" stroke-width="1.0" stroke-miterlimit="8.0" stroke-linecap="butt" d="m139.40408 285.0043l32.34645 0l0 32.346466l-32.34645 0z" fill-rule="evenodd"/><path fill="#e5aa7a" d="m107.04855 220.29346l32.346466 0l0 32.34645l-32.346466 0z" fill-rule="evenodd"/><path stroke="#e5aa7a" stroke-width="1.0" stroke-miterlimit="8.0" stroke-linecap="butt" d="m107.04855 220.29346l32.346466 0l0 32.34645l-32.346466 0z" fill-rule="evenodd"/><path fill="#e5aa7a" d="m107.04855 252.64888l32.346466 0l0 32.34645l-32.346466 0z" fill-rule="evenodd"/><path stroke="#e5aa7a" stroke-width="1.0" stroke-miterlimit="8.0" stroke-linecap="butt" d="m107.04855 252.64888l32.346466 0l0 32.34645l-32.346466 0z" fill-rule="evenodd"/><path fill="#e5aa7a" d="m171.7596 349.71515l32.346466 0l0 32.346466l-32.346466 0z" fill-rule="evenodd"/><path stroke="#e5aa7a" stroke-width="1.0" stroke-miterlimit="8.0" stroke-linecap="butt" d="m171.7596 349.71515l32.346466 0l0 32.346466l-32.346466 0z" fill-rule="evenodd"/><path fill="#e5aa7a" d="m171.7596 382.0706l32.346466 0l0 32.346436l-32.346466 0z" fill-rule="evenodd"/><path stroke="#e5aa7a" stroke-width="1.0" stroke-miterlimit="8.0" stroke-linecap="butt" d="m171.7596 382.0706l32.346466 0l0 32.346436l-32.346466 0z" fill-rule="evenodd"/><path fill="#ffffff" d="m236.47066 382.0706l97.07085 0l0 32.346436l-97.07085 0z" fill-rule="evenodd"/><path stroke="#ffffff" stroke-width="1.0" stroke-miterlimit="8.0" stroke-linecap="butt" d="m236.47066 382.0706l97.07085 0l0 32.346436l-97.07085 0z" fill-rule="evenodd"/><path fill="#9c5a3c" d="m204.11513 349.71515l32.34645 0l0 32.346466l-32.34645 0z" fill-rule="evenodd"/><path stroke="#9c5a3c" stroke-width="1.0" stroke-miterlimit="8.0" stroke-linecap="butt" d="m204.11513 349.71515l32.34645 0l0 32.346466l-32.34645 0z" fill-rule="evenodd"/><path fill="#9c5a3c" d="m204.11513 382.0706l32.34645 0l0 32.346436l-32.34645 0z" fill-rule="evenodd"/><path stroke="#9c5a3c" stroke-width="1.0" stroke-miterlimit="8.0" stroke-linecap="butt" d="m204.11513 382.0706l32.34645 0l0 32.346436l-32.34645 0z" fill-rule="evenodd"/><path fill="#9c5a3c" d="m204.11513 414.426l32.34645 0l0 32.346466l-32.34645 0z" fill-rule="evenodd"/><path stroke="#9c5a3c" stroke-width="1.0" stroke-miterlimit="8.0" stroke-linecap="butt" d="m204.11513 414.426l32.34645 0l0 32.346466l-32.34645 0z" fill-rule="evenodd"/><path fill="#9c5a3c" d="m171.7596 414.426l32.346466 0l0 32.346466l-32.346466 0z" fill-rule="evenodd"/><path stroke="#9c5a3c" stroke-width="1.0" stroke-miterlimit="8.0" stroke-linecap="butt" d="m171.7596 414.426l32.346466 0l0 32.346466l-32.346466 0z" fill-rule="evenodd"/><path fill="#9c5a3c" d="m236.47066 446.78143l32.34645 0l0 32.346466l-32.34645 0z" fill-rule="evenodd"/><path stroke="#9c5a3c" stroke-width="1.0" stroke-miterlimit="8.0" stroke-linecap="butt" d="m236.47066 446.78143l32.34645 0l0 32.346466l-32.34645 0z" fill-rule="evenodd"/><path fill="#9c5a3c" d="m268.82617 446.78143l32.346466 0l0 32.346466l-32.346466 0z" fill-rule="evenodd"/><path stroke="#9c5a3c" stroke-width="1.0" stroke-miterlimit="8.0" stroke-linecap="butt" d="m268.82617 446.78143l32.346466 0l0 32.346466l-32.346466 0z" fill-rule="evenodd"/><path fill="#9c5a3c" d="m301.1817 446.78143l32.346466 0l0 32.346466l-32.346466 0z" fill-rule="evenodd"/><path stroke="#9c5a3c" stroke-width="1.0" stroke-miterlimit="8.0" stroke-linecap="butt" d="m301.1817 446.78143l32.346466 0l0 32.346466l-32.346466 0z" fill-rule="evenodd"/><path fill="#9c5a3c" d="m333.53723 446.78143l32.346436 0l0 32.346466l-32.346436 0z" fill-rule="evenodd"/><path stroke="#9c5a3c" stroke-width="1.0" stroke-miterlimit="8.0" stroke-linecap="butt" d="m333.53723 446.78143l32.346436 0l0 32.346466l-32.346436 0z" fill-rule="evenodd"/><path fill="#9c5a3c" d="m333.53723 414.426l32.346436 0l0 32.346466l-32.346436 0z" fill-rule="evenodd"/><path stroke="#9c5a3c" stroke-width="1.0" stroke-miterlimit="8.0" stroke-linecap="butt" d="m333.53723 414.426l32.346436 0l0 32.346466l-32.346436 0z" fill-rule="evenodd"/><path fill="#9c5a3c" d="m333.53723 382.0706l32.346436 0l0 32.346436l-32.346436 0z" fill-rule="evenodd"/><path stroke="#9c5a3c" stroke-width="1.0" stroke-miterlimit="8.0" stroke-linecap="butt" d="m333.53723 382.0706l32.346436 0l0 32.346436l-32.346436 0z" fill-rule="evenodd"/><path fill="#9c5a3c" d="m333.53723 349.71515l32.346436 0l0 32.346466l-32.346436 0z" fill-rule="evenodd"/><path stroke="#9c5a3c" stroke-width="1.0" stroke-miterlimit="8.0" stroke-linecap="butt" d="m333.53723 349.71515l32.346436 0l0 32.346466l-32.346436 0z" fill-rule="evenodd"/><path fill="#9c5a3c" d="m365.89276 414.426l32.346436 0l0 32.346466l-32.346436 0z" fill-rule="evenodd"/><path stroke="#9c5a3c" stroke-width="1.0" stroke-miterlimit="8.0" stroke-linecap="butt" d="m365.89276 414.426l32.346436 0l0 32.346466l-32.346436 0z" fill-rule="evenodd"/><path fill="#9c5a3c" d="m236.47066 414.426l97.07085 0l0 32.346466l-97.07085 0z" fill-rule="evenodd"/><path stroke="#9c5a3c" stroke-width="1.0" stroke-miterlimit="8.0" stroke-linecap="butt" d="m236.47066 414.426l97.07085 0l0 32.346466l-97.07085 0z" fill-rule="evenodd"/><path fill="#9c5a3c" d="m236.47066 349.71515l97.07085 0l0 32.346466l-97.07085 0z" fill-rule="evenodd"/><path stroke="#9c5a3c" stroke-width="1.0" stroke-miterlimit="8.0" stroke-linecap="butt" d="m236.47066 349.71515l97.07085 0l0 32.346466l-97.07085 0z" fill-rule="evenodd"/><path fill="#9c5a3c" d="m204.11513 446.78143l32.34645 0l0 32.346466l-32.34645 0z" fill-rule="evenodd"/><path stroke="#9c5a3c" stroke-width="1.0" stroke-miterlimit="8.0" stroke-linecap="butt" d="m204.11513 446.78143l32.34645 0l0 32.346466l-32.34645 0z" fill-rule="evenodd"/><path fill="#9c5a3c" d="m139.40408 382.0706l32.34645 0l0 32.346436l-32.34645 0z" fill-rule="evenodd"/><path stroke="#9c5a3c" stroke-width="1.0" stroke-miterlimit="8.0" stroke-linecap="butt" d="m139.40408 382.0706l32.34645 0l0 32.346436l-32.34645 0z" fill-rule="evenodd"/><path fill="#9c5a3c" d="m139.40408 349.71515l32.34645 0l0 32.346466l-32.34645 0z" fill-rule="evenodd"/><path stroke="#9c5a3c" stroke-width="1.0" stroke-miterlimit="8.0" stroke-linecap="butt" d="m139.40408 349.71515l32.34645 0l0 32.346466l-32.34645 0z" fill-rule="evenodd"/><path fill="#9c5a3c" d="m139.40408 317.35974l32.34645 0l0 32.346436l-32.34645 0z" fill-rule="evenodd"/><path stroke="#9c5a3c" stroke-width="1.0" stroke-miterlimit="8.0" stroke-linecap="butt" d="m139.40408 317.35974l32.34645 0l0 32.346436l-32.34645 0z" fill-rule="evenodd"/><path fill="#9c5a3c" d="m398.24826 382.0706l32.346466 0l0 32.346436l-32.346466 0z" fill-rule="evenodd"/><path stroke="#9c5a3c" stroke-width="1.0" stroke-miterlimit="8.0" stroke-linecap="butt" d="m398.24826 382.0706l32.346466 0l0 32.346436l-32.346466 0z" fill-rule="evenodd"/><path fill="#9c5a3c" d="m398.24826 349.71515l32.346466 0l0 32.346466l-32.346466 0z" fill-rule="evenodd"/><path stroke="#9c5a3c" stroke-width="1.0" stroke-miterlimit="8.0" stroke-linecap="butt" d="m398.24826 349.71515l32.346466 0l0 32.346466l-32.346466 0z" fill-rule="evenodd"/><path fill="#9c5a3c" d="m398.24826 317.35974l32.346466 0l0 32.346436l-32.346466 0z" fill-rule="evenodd"/><path stroke="#9c5a3c" stroke-width="1.0" stroke-miterlimit="8.0" stroke-linecap="butt" d="m398.24826 317.35974l32.346466 0l0 32.346436l-32.346466 0z" fill-rule="evenodd"/><path fill="#9c5a3c" d="m398.24826 155.58261l32.346466 0l0 32.34645l-32.346466 0z" fill-rule="evenodd"/><path stroke="#9c5a3c" stroke-width="1.0" stroke-miterlimit="8.0" stroke-linecap="butt" d="m398.24826 155.58261l32.346466 0l0 32.34645l-32.346466 0z" fill-rule="evenodd"/><path fill="#9c5a3c" d="m398.24826 123.22719l32.346466 0l0 32.34645l-32.346466 0z" fill-rule="evenodd"/><path stroke="#9c5a3c" stroke-width="1.0" stroke-miterlimit="8.0" stroke-linecap="butt" d="m398.24826 123.22719l32.346466 0l0 32.34645l-32.346466 0z" fill-rule="evenodd"/><path fill="#9c5a3c" d="m139.40408 123.22719l258.83466 0l0 32.34645l-258.83466 0z" fill-rule="evenodd"/><path stroke="#9c5a3c" stroke-width="1.0" stroke-miterlimit="8.0" stroke-linecap="butt" d="m139.40408 123.22719l258.83466 0l0 32.34645l-258.83466 0z" fill-rule="evenodd"/><path fill="#9c5a3c" d="m171.7596 90.87176l226.4882 0l0 32.34646l-226.4882 0z" fill-rule="evenodd"/><path stroke="#9c5a3c" stroke-width="1.0" stroke-miterlimit="8.0" stroke-linecap="butt" d="m171.7596 90.87176l226.4882 0l0 32.34646l-226.4882 0z" fill-rule="evenodd"/><path fill="#9c5a3c" d="m139.40408 155.58261l32.34645 0l0 32.34645l-32.34645 0z" fill-rule="evenodd"/><path stroke="#9c5a3c" stroke-width="1.0" stroke-miterlimit="8.0" stroke-linecap="butt" d="m139.40408 155.58261l32.34645 0l0 32.34645l-32.34645 0z" fill-rule="evenodd"/><path fill="#9c5a3c" d="m236.47066 155.58261l32.34645 0l0 32.34645l-32.34645 0z" fill-rule="evenodd"/><path stroke="#9c5a3c" stroke-width="1.0" stroke-miterlimit="8.0" stroke-linecap="butt" d="m236.47066 155.58261l32.34645 0l0 32.34645l-32.34645 0z" fill-rule="evenodd"/><path fill="#000000" d="m236.47066 252.64888l32.34645 0l0 32.34645l-32.34645 0z" fill-rule="evenodd"/><path stroke="#000000" stroke-width="1.0" stroke-miterlimit="8.0" stroke-linecap="butt" d="m236.47066 252.64888l32.34645 0l0 32.34645l-32.34645 0z" fill-rule="evenodd"/><path fill="#000000" d="m268.82617 252.64888l32.346466 0l0 32.34645l-32.346466 0z" fill-rule="evenodd"/><path stroke="#000000" stroke-width="1.0" stroke-miterlimit="8.0" stroke-linecap="butt" d="m268.82617 252.64888l32.346466 0l0 32.34645l-32.346466 0z" fill-rule="evenodd"/><path fill="#000000" d="m301.1817 252.64888l32.346466 0l0 32.34645l-32.346466 0z" fill-rule="evenodd"/><path stroke="#000000" stroke-width="1.0" stroke-miterlimit="8.0" stroke-linecap="butt" d="m301.1817 252.64888l32.346466 0l0 32.34645l-32.346466 0z" fill-rule="evenodd"/><path fill="#000000" d="m204.11513 285.0043l32.34645 0l0 32.346466l-32.34645 0z" fill-rule="evenodd"/><path stroke="#000000" stroke-width="1.0" stroke-miterlimit="8.0" stroke-linecap="butt" d="m204.11513 285.0043l32.34645 0l0 32.346466l-32.34645 0z" fill-rule="evenodd"/><path fill="#000000" d="m204.11513 220.29346l32.34645 0l0 32.34645l-32.34645 0z" fill-rule="evenodd"/><path stroke="#000000" stroke-width="1.0" stroke-miterlimit="8.0" stroke-linecap="butt" d="m204.11513 220.29346l32.34645 0l0 32.34645l-32.34645 0z" fill-rule="evenodd"/><path fill="#000000" d="m171.7596 252.64888l32.346466 0l0 32.34645l-32.346466 0z" fill-rule="evenodd"/><path stroke="#000000" stroke-width="1.0" stroke-miterlimit="8.0" stroke-linecap="butt" d="m171.7596 252.64888l32.346466 0l0 32.34645l-32.346466 0z" fill-rule="evenodd"/><path fill="#000000" d="m139.40408 220.29346l32.34645 0l0 32.34645l-32.34645 0z" fill-rule="evenodd"/><path stroke="#000000" stroke-width="1.0" stroke-miterlimit="8.0" stroke-linecap="butt" d="m139.40408 220.29346l32.34645 0l0 32.34645l-32.34645 0z" fill-rule="evenodd"/><path fill="#000000" d="m107.04855 187.93803l32.346466 0l0 32.34645l-32.346466 0z" fill-rule="evenodd"/><path stroke="#000000" stroke-width="1.0" stroke-miterlimit="8.0" stroke-linecap="butt" d="m107.04855 187.93803l32.346466 0l0 32.34645l-32.346466 0z" fill-rule="evenodd"/><path fill="#000000" d="m365.89276 252.64888l32.346436 0l0 32.34645l-32.346436 0z" fill-rule="evenodd"/><path stroke="#000000" stroke-width="1.0" stroke-miterlimit="8.0" stroke-linecap="butt" d="m365.89276 252.64888l32.346436 0l0 32.34645l-32.346436 0z" fill-rule="evenodd"/><path fill="#000000" d="m333.53723 285.0043l32.346436 0l0 32.346466l-32.346436 0z" fill-rule="evenodd"/><path stroke="#000000" stroke-width="1.0" stroke-miterlimit="8.0" stroke-linecap="butt" d="m333.53723 285.0043l32.346436 0l0 32.346466l-32.346436 0z" fill-rule="evenodd"/><path fill="#000000" d="m333.53723 220.29346l32.346436 0l0 32.34645l-32.346436 0z" fill-rule="evenodd"/><path stroke="#000000" stroke-width="1.0" stroke-miterlimit="8.0" stroke-linecap="butt" d="m333.53723 220.29346l32.346436 0l0 32.34645l-32.346436 0z" fill-rule="evenodd"/><path fill="#000000" d="m398.24826 220.29346l32.346466 0l0 32.34645l-32.346466 0z" fill-rule="evenodd"/><path stroke="#000000" stroke-width="1.0" stroke-miterlimit="8.0" stroke-linecap="butt" d="m398.24826 220.29346l32.346466 0l0 32.34645l-32.346466 0z" fill-rule="evenodd"/><path fill="#000000" d="m430.6038 187.93803l32.346466 0l0 32.34645l-32.346466 0z" fill-rule="evenodd"/><path stroke="#000000" stroke-width="1.0" stroke-miterlimit="8.0" stroke-linecap="butt" d="m430.6038 187.93803l32.346466 0l0 32.34645l-32.346466 0z" fill-rule="evenodd"/></g></svg>